<svg xmlns="http://www.w3.org/2000/svg" viewBox="0 0 250 73">
  <g id="P">
  	<path fill="none" stroke="#EDEDED" stroke-width="2.5" stroke-linecap="round" stroke-miterlimit="10" d="M20.073,35.577
  		c2.002,0.847,4.204,1.315,6.515,1.315c2.311,0,4.513-0.469,6.516-1.315c2.002-0.847,3.806-2.073,5.32-3.587
  		c1.514-1.515,2.74-3.318,3.587-5.321c0.847-2.002,1.315-4.203,1.315-6.515c0-2.311-0.468-4.512-1.315-6.515
  		s-2.073-3.806-3.587-5.321c-1.514-1.514-3.317-2.74-5.32-3.587c-2.003-0.847-4.205-1.315-6.516-1.315
  		c-2.311,0-4.513,0.468-6.515,1.315c-2.003,0.847-3.806,2.073-5.32,3.587c-1.515,1.515-2.74,3.318-3.587,5.321
  		c-0.847,2.002-1.315,4.204-1.315,6.515V53.63"/>
  </g>
  <g id="A">
  	<path fill="none" stroke="#EDEDED" stroke-width="2.5" stroke-linecap="round" stroke-miterlimit="10" d="M83.317,35.591
  		c-2.002,0.847-4.205,1.314-6.515,1.314c-2.311,0-4.513-0.468-6.516-1.314c-2.002-0.847-3.806-2.073-5.32-3.587
  		c-1.515-1.515-2.741-3.318-3.587-5.32c-0.848-2.003-1.316-4.205-1.316-6.516c0-2.311,0.468-4.512,1.316-6.515
  		c0.846-2.002,2.072-3.806,3.587-5.32c1.514-1.515,3.318-2.74,5.32-3.587c2.003-0.847,4.205-1.315,6.516-1.315
  		c2.311,0,4.513,0.468,6.515,1.315c2.002,0.847,3.806,2.073,5.321,3.587c1.514,1.514,2.74,3.318,3.587,5.32
  		c0.847,2.003,1.315,4.205,1.315,6.515v16.737"/>
  </g>
  <g id="R">
  	<path fill="none" stroke="#EDEDED" stroke-width="2.5" stroke-linecap="round" stroke-miterlimit="10" d="M138.852,8.318
  		c-1.516-1.514-3.318-2.74-5.32-3.587c-2.004-0.847-4.205-1.315-6.516-1.315c-2.311,0-4.512,0.468-6.515,1.315
  		c-2.003,0.847-3.807,2.073-5.32,3.587c-1.515,1.515-2.741,3.318-3.588,5.321s-1.314,4.204-1.314,6.515v16.738"/>
  </g>
  <g id="I">
  	<g>

  			<line fill="none" stroke="#EDEDED" stroke-width="2.5" stroke-linecap="round" stroke-miterlimit="10" x1="153.287" y1="13.704" x2="153.287" y2="36.972"/>

  			<line fill="none" stroke="#EDEDED" stroke-width="2.5" stroke-linecap="round" stroke-miterlimit="10" x1="153.287" y1="3.344" x2="153.287" y2="3.518"/>
  	</g>
  </g>
  <g id="T">
  	<g>

  			<line fill="none" stroke="#EDEDED" stroke-width="2.5" stroke-linecap="round" stroke-miterlimit="10" x1="168.596" y1="13.639" x2="190.58" y2="13.639"/>
  		<path fill="none" stroke="#EDEDED" stroke-width="2.5" stroke-linecap="round" stroke-miterlimit="10" d="M179.588,2.649v26.097
  			c0,4.543,3.682,8.226,8.225,8.226"/>
  	</g>
  </g>
  <g id="Y">
  	<g>
  		<path fill="none" stroke="#EDEDED" stroke-width="2.5" stroke-linecap="round" stroke-miterlimit="10" d="M207.316,3.417v16.585
  			c0,9.328,7.562,16.891,16.891,16.891c9.33,0,16.893-7.562,16.893-16.891"/>

  			<line fill="none" stroke="#EDEDED" stroke-width="2.5" stroke-linecap="round" stroke-miterlimit="10" x1="241.1" y1="3.417" x2="241.1" y2="36.92"/>

  			<line fill="none" stroke="#EDEDED" stroke-width="2.5" stroke-linecap="round" stroke-miterlimit="10" x1="241.1" y1="36.892" x2="241.1" y2="53.645"/>
  		<path fill="none" stroke="#EDEDED" stroke-width="2.5" stroke-linecap="round" stroke-miterlimit="10" d="M241.1,53.645
  			c0,9.328-7.562,16.891-16.893,16.891"/>
  	</g>
  </g>
  <g id="wallet">
  	<g>
  		<path fill="#EDEDED" d="M128.504,50.593c0.232,0.077,0.4,0.227,0.507,0.448c0.097,0.213,0.106,0.434,0.029,0.666l-6.685,19.056
  			c0-0.009-0.01,0.011-0.03,0.059c-0.009,0.02-0.014,0.033-0.014,0.043c-0.02,0.038-0.043,0.072-0.073,0.101v0.016l-0.014,0.015
  			c-0.029,0.038-0.063,0.076-0.102,0.115c0.011-0.01,0,0-0.028,0.029c-0.029,0.019-0.063,0.038-0.102,0.058
  			c-0.009,0.01-0.024,0.019-0.042,0.029c-0.029,0.02-0.062,0.039-0.102,0.057h-0.015c-0.009,0-0.014,0.006-0.014,0.016
  			c0-0.01-0.005-0.01-0.015,0c-0.02,0.009-0.048,0.019-0.087,0.028c-0.039,0-0.053,0-0.043,0c-0.048,0.01-0.096,0.015-0.145,0.015
  			c-0.039,0-0.082-0.005-0.13-0.015c0.009,0-0.004,0-0.043,0c-0.039-0.01-0.072-0.02-0.101-0.028c-0.01-0.01-0.015-0.01-0.015,0
  			c0-0.01-0.004-0.016-0.015-0.016c-0.048-0.018-0.087-0.037-0.116-0.057c-0.02-0.011-0.033-0.02-0.043-0.029
  			c-0.028-0.02-0.057-0.039-0.087-0.058c-0.029-0.029-0.038-0.039-0.029-0.029c-0.039-0.039-0.076-0.077-0.115-0.115v-0.015
  			c-0.01,0-0.015-0.005-0.015-0.016c-0.019-0.028-0.038-0.062-0.057-0.101c0-0.01-0.01-0.023-0.03-0.043
  			c-0.009-0.048-0.014-0.067-0.014-0.059l-5.875-16.727l-5.875,16.727c0-0.009-0.01,0.011-0.029,0.059
  			c-0.01,0.02-0.014,0.033-0.014,0.043c-0.02,0.038-0.043,0.072-0.073,0.101v0.016l-0.014,0.015
  			c-0.029,0.038-0.063,0.076-0.102,0.115c0.01-0.01,0,0-0.029,0.029c-0.029,0.019-0.058,0.038-0.087,0.058
  			c-0.019,0.01-0.034,0.019-0.043,0.029c-0.039,0.02-0.077,0.039-0.116,0.057h-0.014l-0.015,0.016c0.009-0.01,0.005-0.01-0.015,0
  			c-0.019,0.009-0.048,0.019-0.086,0.028c-0.039,0-0.053,0-0.043,0c-0.049,0.01-0.097,0.015-0.145,0.015
  			c-0.039,0-0.082-0.005-0.13-0.015c0.01,0-0.004,0-0.043,0c-0.039-0.01-0.072-0.02-0.101-0.028c-0.01-0.01-0.01-0.01,0,0
  			l-0.015-0.016h-0.014c-0.039-0.018-0.077-0.037-0.116-0.057c-0.019-0.011-0.033-0.02-0.043-0.029
  			c-0.029-0.02-0.058-0.039-0.087-0.058c-0.029-0.029-0.038-0.039-0.029-0.029c-0.038-0.039-0.072-0.077-0.101-0.115
  			c-0.01,0-0.014-0.006-0.014-0.015l-0.015-0.016c-0.019-0.028-0.039-0.062-0.058-0.101c0-0.01-0.005-0.023-0.015-0.043
  			c-0.019-0.048-0.028-0.067-0.028-0.059l-6.686-19.056c-0.086-0.232-0.077-0.453,0.029-0.666c0.106-0.222,0.27-0.371,0.492-0.448
  			c0.231-0.077,0.453-0.063,0.666,0.043s0.361,0.271,0.449,0.492l5.86,16.728l5.875-16.728c-0.011,0.028,0,0.015,0.028-0.043
  			c0.009-0.029,0.02-0.059,0.029-0.088c0.019-0.019,0.034-0.038,0.043-0.057c0.02-0.03,0.039-0.054,0.058-0.073
  			c0.019-0.028,0.038-0.048,0.057-0.058c0.02-0.02,0.039-0.039,0.059-0.058c0.02-0.02,0.038-0.038,0.057-0.058
  			c0.03-0.02,0.059-0.034,0.087-0.044c0.02-0.01,0.043-0.02,0.072-0.029c0.067-0.028,0.083-0.038,0.043-0.028
  			c-0.02,0.01-0.009,0.01,0.03,0c0.029-0.01,0.057-0.02,0.086-0.029c0.039,0,0.068-0.004,0.087-0.015c0.02,0,0.048,0,0.087,0
  			c0.039,0,0.067,0,0.087,0c0.009,0.011,0.034,0.015,0.072,0.015c0.039,0.01,0.067,0.02,0.087,0.029c0.039,0.01,0.054,0.01,0.043,0
  			l0.015,0.015c0.009,0,0.02,0.005,0.029,0.014c0.029,0.01,0.053,0.02,0.072,0.029c0.03,0.02,0.054,0.033,0.073,0.044
  			c0.019,0.02,0.042,0.038,0.072,0.058c0.02,0.019,0.038,0.038,0.057,0.058c0.02,0.02,0.039,0.039,0.059,0.058
  			c0.02,0.02,0.033,0.043,0.043,0.073c0.02,0.019,0.033,0.038,0.043,0.057c0.02,0.029,0.033,0.059,0.043,0.088
  			c0.029,0.058,0.033,0.071,0.014,0.043l5.875,16.728l5.874-16.728c0.078-0.222,0.228-0.386,0.448-0.492
  			c0.213-0.106,0.319-0.159,0.319-0.159S128.282,50.516,128.504,50.593z"/>
  		<path fill="#EDEDED" d="M132.194,71.27c-0.222-0.087-0.376-0.241-0.463-0.463c-0.097-0.223-0.097-0.444,0-0.666l2.012-4.847V65.28
  			l5.858-14.137c0.02-0.049,0.044-0.102,0.074-0.159l0.057-0.058c0.03-0.039,0.048-0.063,0.059-0.072
  			c0.009-0.011,0.033-0.03,0.072-0.059c0.048-0.039,0.067-0.053,0.058-0.043c0.097-0.068,0.198-0.111,0.304-0.131h0.072
  			c0.059-0.009,0.093-0.014,0.102-0.014s0.039,0.005,0.087,0.014c0.058,0,0.081,0,0.072,0c0.115,0.02,0.222,0.062,0.318,0.131
  			l0.058,0.043c0.039,0.039,0.063,0.059,0.072,0.059c0.01,0.009,0.029,0.033,0.059,0.072c0.038,0.048,0.058,0.067,0.058,0.058
  			c0.028,0.058,0.053,0.11,0.071,0.159l5.86,14.137v0.015l2.012,4.847c0.097,0.222,0.097,0.443,0,0.666
  			c-0.087,0.222-0.241,0.376-0.463,0.463c-0.106,0.048-0.217,0.072-0.333,0.072c-0.386,0-0.651-0.179-0.796-0.535l-1.794-4.312
  			h-10.562l-1.794,4.312c-0.146,0.356-0.41,0.535-0.796,0.535c-0.116,0-0.174,0-0.174,0S132.3,71.318,132.194,71.27z
  			 M144.972,64.759l-4.573-11.026l-4.572,11.026H144.972z"/>
  		<path fill="#EDEDED" d="M153.754,50.636c0.231,0,0.434,0.087,0.608,0.261c0.163,0.164,0.245,0.366,0.245,0.608V69.62h9.391
  			c0.24,0,0.443,0.083,0.608,0.246c0.174,0.174,0.26,0.377,0.26,0.608c0,0.241-0.086,0.448-0.26,0.622
  			c-0.165,0.164-0.368,0.246-0.608,0.246h-10.244c-0.241,0-0.448-0.082-0.622-0.246c-0.164-0.174-0.246-0.381-0.246-0.622V51.505
  			c0-0.242,0.082-0.444,0.246-0.608C153.306,50.723,153.513,50.636,153.754,50.636z"/>
  		<path fill="#EDEDED" d="M169.366,50.636c0.231,0,0.435,0.087,0.608,0.261c0.163,0.164,0.246,0.366,0.246,0.608V69.62h9.391
  			c0.241,0,0.443,0.083,0.607,0.246c0.174,0.174,0.26,0.377,0.26,0.608c0,0.241-0.086,0.448-0.26,0.622
  			c-0.164,0.164-0.366,0.246-0.607,0.246h-10.245c-0.241,0-0.448-0.082-0.622-0.246c-0.164-0.174-0.246-0.381-0.246-0.622V51.505
  			c0-0.242,0.082-0.444,0.246-0.608C168.918,50.723,169.125,50.636,169.366,50.636z"/>
  		<path fill="#EDEDED" d="M184.907,71.342c-0.242,0-0.444-0.087-0.608-0.261c-0.174-0.164-0.261-0.366-0.261-0.607V51.433
  			c0-0.241,0.087-0.444,0.261-0.609c0.173-0.183,0.376-0.27,0.608-0.26l11.488,0.029c0.241,0,0.443,0.087,0.607,0.261
  			c0.174,0.173,0.261,0.375,0.261,0.607c0,0.241-0.087,0.448-0.261,0.621c-0.164,0.165-0.366,0.246-0.607,0.246L185.774,52.3v7.785
  			h7.944c0.241,0,0.443,0.087,0.607,0.26c0.174,0.165,0.261,0.367,0.261,0.607c0,0.241-0.087,0.444-0.261,0.607
  			c-0.164,0.174-0.366,0.261-0.607,0.261h-7.944v7.785h10.621c0.241,0,0.443,0.087,0.607,0.26c0.174,0.165,0.261,0.367,0.261,0.608
  			s-0.087,0.443-0.261,0.607c-0.164,0.174-0.366,0.261-0.607,0.261H184.907z"/>
  		<path fill="#EDEDED" d="M206.075,52.315h-5.715c-0.241,0-0.448-0.082-0.623-0.246c-0.163-0.163-0.245-0.366-0.245-0.607
  			s0.082-0.444,0.245-0.607c0.175-0.174,0.382-0.261,0.623-0.261h13.152c0.241,0,0.443,0.087,0.607,0.261
  			c0.174,0.163,0.261,0.366,0.261,0.607s-0.087,0.444-0.261,0.607c-0.164,0.164-0.366,0.246-0.607,0.246h-5.716v18.159
  			c0,0.241-0.082,0.448-0.245,0.622c-0.175,0.164-0.382,0.246-0.623,0.246c-0.231,0-0.434-0.082-0.607-0.246
  			c-0.164-0.174-0.246-0.381-0.246-0.622V52.315z"/>
  	</g>
  </g>
</svg>
